<svg width="1546" height="490" viewBox="0 0 1546 490" fill="none" xmlns="http://www.w3.org/2000/svg">
<path d="M318.723 297.435C311.573 287.205 304.297 276.834 294.631 268.712C284.965 260.569 272.443 254.816 259.604 255.566C248.33 256.234 237.882 261.865 229.632 269.218C221.383 276.571 214.974 285.626 208.671 294.599C191.623 318.825 174.554 343.051 157.506 367.298C149.405 378.803 141.092 390.815 138.85 404.528C136.143 421.098 143.44 437.971 156.385 448.99C169.922 460.516 191.856 459.584 208.333 456.424C226.396 452.96 244.058 446.438 262.481 446.458C278.26 446.458 293.51 451.279 308.866 454.783C324.201 458.267 340.678 460.415 355.484 455.229C373.864 448.808 387.063 430.557 386.703 411.82C386.365 394.724 366.144 365.232 366.144 365.232C366.144 365.232 334.527 320.036 318.723 297.435Z" fill="#010409"/>
<path d="M318.723 297.435C311.573 287.205 304.297 276.834 294.631 268.712C284.965 260.569 272.443 254.816 259.604 255.566C248.33 256.234 237.882 261.865 229.632 269.218C221.383 276.571 214.974 285.626 208.671 294.599C191.623 318.825 174.554 343.051 157.506 367.298C149.405 378.803 141.092 390.815 138.85 404.528C136.143 421.098 143.44 437.971 156.385 448.99C169.922 460.516 191.856 459.584 208.333 456.424C226.396 452.96 244.058 446.438 262.481 446.458C278.26 446.458 293.51 451.279 308.866 454.783C324.201 458.267 340.678 460.415 355.484 455.229C373.864 448.808 387.063 430.557 386.703 411.82C386.365 394.724 366.144 365.232 366.144 365.232C366.144 365.232 334.527 320.036 318.723 297.435Z" fill="#010409"/>
<path d="M318.723 297.435C311.573 287.205 304.297 276.834 294.631 268.712C284.965 260.569 272.443 254.816 259.604 255.566C248.33 256.234 237.882 261.865 229.632 269.218C221.383 276.571 214.974 285.626 208.671 294.599C191.623 318.825 174.554 343.051 157.506 367.298C149.405 378.803 141.092 390.815 138.85 404.528C136.143 421.098 143.44 437.971 156.385 448.99C169.922 460.516 191.856 459.584 208.333 456.424C226.396 452.96 244.058 446.438 262.481 446.458C278.26 446.458 293.51 451.279 308.866 454.783C324.201 458.267 340.678 460.415 355.484 455.229C373.864 448.808 387.063 430.557 386.703 411.82C386.365 394.724 366.144 365.232 366.144 365.232C366.144 365.232 334.527 320.036 318.723 297.435Z" fill="#010409"/>
<g clip-path="url(#clip0_20_7)">
<path d="M248.837 141.119C242.768 185.557 216.133 212.709 189.346 201.765C162.56 190.822 145.765 145.926 151.834 101.488C157.904 57.0502 184.539 29.8977 211.326 40.8413C238.112 51.785 254.907 96.6806 248.837 141.119Z" fill="#010409"/>
<path d="M248.837 141.119C242.768 185.557 216.133 212.709 189.346 201.765C162.56 190.822 145.765 145.926 151.834 101.488C157.904 57.0502 184.539 29.8977 211.326 40.8413C238.112 51.785 254.907 96.6806 248.837 141.119Z" fill="#010409"/>
<path d="M248.837 141.119C242.768 185.557 216.133 212.709 189.346 201.765C162.56 190.822 145.765 145.926 151.834 101.488C157.904 57.0502 184.539 29.8977 211.326 40.8413C238.112 51.785 254.907 96.6806 248.837 141.119Z" fill="#010409"/>
</g>
<g clip-path="url(#clip1_20_7)">
<path d="M378.837 141.119C372.768 185.557 346.133 212.709 319.346 201.765C292.56 190.822 275.765 145.926 281.834 101.488C287.904 57.0502 314.539 29.8977 341.326 40.8413C368.112 51.785 384.907 96.6806 378.837 141.119Z" fill="#010409"/>
<path d="M378.837 141.119C372.768 185.557 346.133 212.709 319.346 201.765C292.56 190.822 275.765 145.926 281.834 101.488C287.904 57.0502 314.539 29.8977 341.326 40.8413C368.112 51.785 384.907 96.6806 378.837 141.119Z" fill="#010409"/>
<path d="M378.837 141.119C372.768 185.557 346.133 212.709 319.346 201.765C292.56 190.822 275.765 145.926 281.834 101.488C287.904 57.0502 314.539 29.8977 341.326 40.8413C368.112 51.785 384.907 96.6806 378.837 141.119Z" fill="#010409"/>
</g>
<g clip-path="url(#clip2_20_7)">
<path d="M453.897 283.52C440.203 326.229 409.258 348.344 384.779 332.915C360.299 317.486 351.556 270.356 365.25 227.647C378.944 184.938 409.889 162.823 434.368 178.252C458.848 193.681 467.591 240.811 453.897 283.52Z" fill="#010409"/>
<path d="M453.897 283.52C440.203 326.229 409.258 348.344 384.779 332.915C360.299 317.486 351.556 270.356 365.25 227.647C378.944 184.938 409.889 162.823 434.368 178.252C458.848 193.681 467.591 240.811 453.897 283.52Z" fill="#010409"/>
<path d="M453.897 283.52C440.203 326.229 409.258 348.344 384.779 332.915C360.299 317.486 351.556 270.356 365.25 227.647C378.944 184.938 409.889 162.823 434.368 178.252C458.848 193.681 467.591 240.811 453.897 283.52Z" fill="#010409"/>
</g>
<g clip-path="url(#clip3_20_7)">
<path d="M68.4491 239.246C66.7098 194.429 88.2253 163.064 116.505 169.19C144.785 175.316 169.121 216.613 170.86 261.43C172.599 306.246 151.084 337.611 122.804 331.485C94.5238 325.36 70.1884 284.062 68.4491 239.246Z" fill="#010409"/>
<path d="M68.4491 239.246C66.7098 194.429 88.2253 163.064 116.505 169.19C144.785 175.316 169.121 216.613 170.86 261.43C172.599 306.246 151.084 337.611 122.804 331.485C94.5238 325.36 70.1884 284.062 68.4491 239.246Z" fill="#010409"/>
<path d="M68.4491 239.246C66.7098 194.429 88.2253 163.064 116.505 169.19C144.785 175.316 169.121 216.613 170.86 261.43C172.599 306.246 151.084 337.611 122.804 331.485C94.5238 325.36 70.1884 284.062 68.4491 239.246Z" fill="#010409"/>
</g>
<path d="M1444.21 361.29C1433.65 361.29 1424.52 358.98 1416.82 354.36C1409.23 349.63 1403.35 343.47 1399.17 335.88C1395.1 328.29 1393.06 320.15 1393.06 311.46C1393.06 302.33 1395.76 293.695 1401.15 285.555C1406.54 277.415 1415.78 270.54 1428.87 264.93C1442.07 259.21 1460.27 255.47 1483.48 253.71C1482.71 258.88 1481.45 263.665 1479.69 268.065C1477.93 272.355 1475.51 275.93 1472.43 278.79C1469.46 281.65 1465.66 283.52 1461.04 284.4C1455.54 285.28 1451.03 286.82 1447.51 289.02C1443.99 291.22 1441.41 293.915 1439.76 297.105C1438.11 300.185 1437.28 303.54 1437.28 307.17C1437.28 312.89 1439.32 317.675 1443.39 321.525C1447.46 325.375 1452.35 327.3 1458.07 327.3C1464.34 327.3 1470.67 325.155 1477.05 320.865C1483.54 316.465 1489.64 310.91 1495.36 304.2V254.37C1495.36 242.93 1492.17 233.8 1485.79 226.98C1479.52 220.16 1470.61 216.75 1459.06 216.75C1453.67 216.75 1447.84 217.3 1441.57 218.4C1435.3 219.5 1428.26 221.48 1420.45 224.34L1409.23 195.3C1419.02 190.79 1429.09 187.6 1439.43 185.73C1449.88 183.75 1458.95 182.76 1466.65 182.76C1490.08 182.76 1508.12 188.92 1520.77 201.24C1533.53 213.56 1539.91 231.27 1539.91 254.37V315.42C1539.91 321.47 1540.3 327.96 1541.07 334.89C1541.84 341.82 1543.21 349.19 1545.19 357H1511.2C1508.23 355.35 1505.76 353.04 1503.78 350.07C1501.91 346.99 1500.31 343.8 1498.99 340.5L1498 333.9L1494.04 339.51C1484.14 348.53 1475.45 354.415 1467.97 357.165C1460.6 359.915 1452.68 361.29 1444.21 361.29Z" fill="#010409"/>
<path d="M1308.36 357V235.89C1308.36 230.39 1307.15 225.88 1304.73 222.36C1302.31 218.84 1298.02 217.08 1291.86 217.08C1289.88 217.08 1287.73 217.355 1285.42 217.905C1283.11 218.455 1280.53 218.84 1277.67 219.06C1272.39 219.39 1267.6 217.19 1263.31 212.46C1259.13 207.62 1255.56 202.23 1252.59 196.29C1264.69 191.34 1274.92 187.765 1283.28 185.565C1291.64 183.255 1299.67 182.1 1307.37 182.1C1314.96 182.1 1322.33 184.025 1329.48 187.875C1336.74 191.725 1342.68 197.61 1347.3 205.53C1351.92 213.34 1354.23 223.24 1354.23 235.23V357H1308.36ZM1097.82 357V227.97C1097.82 221.81 1097.43 215.265 1096.66 208.335C1096 201.405 1094.74 194.09 1092.87 186.39H1131.15C1136.43 192.33 1139.89 198.215 1141.54 204.045C1143.19 209.875 1144.02 216.09 1144.02 222.69V357H1097.82ZM1203.09 357V235.89C1203.09 230.39 1202.04 225.88 1199.95 222.36C1197.97 218.84 1194.18 217.08 1188.57 217.08C1186.59 217.08 1184.61 217.3 1182.63 217.74C1180.65 218.18 1178.34 218.51 1175.7 218.73C1170.42 219.06 1165.74 216.86 1161.67 212.13C1157.71 207.29 1154.25 201.9 1151.28 195.96C1163.16 191.12 1173.11 187.6 1181.14 185.4C1189.17 183.2 1197.04 182.1 1204.74 182.1C1212.33 182.1 1219.48 184.025 1226.19 187.875C1233.01 191.725 1238.56 197.61 1242.85 205.53C1247.14 213.34 1249.29 223.24 1249.29 235.23V357H1203.09Z" fill="#010409"/>
<path d="M1001.56 357V235.89C1001.56 230.39 1000.35 225.88 997.93 222.36C995.51 218.84 991.22 217.08 985.06 217.08C983.08 217.08 980.935 217.355 978.625 217.905C976.315 218.455 973.73 218.84 970.87 219.06C965.59 219.39 960.805 217.19 956.515 212.46C952.335 207.62 948.76 202.23 945.79 196.29C957.89 191.34 968.12 187.765 976.48 185.565C984.84 183.255 992.87 182.1 1000.57 182.1C1008.16 182.1 1015.53 184.025 1022.68 187.875C1029.94 191.725 1035.88 197.61 1040.5 205.53C1045.12 213.34 1047.43 223.24 1047.43 235.23V357H1001.56ZM791.02 357V227.97C791.02 221.81 790.635 215.265 789.865 208.335C789.205 201.405 787.94 194.09 786.07 186.39H824.35C829.63 192.33 833.095 198.215 834.745 204.045C836.395 209.875 837.22 216.09 837.22 222.69V357H791.02ZM896.29 357V235.89C896.29 230.39 895.245 225.88 893.155 222.36C891.175 218.84 887.38 217.08 881.77 217.08C879.79 217.08 877.81 217.3 875.83 217.74C873.85 218.18 871.54 218.51 868.9 218.73C863.62 219.06 858.945 216.86 854.875 212.13C850.915 207.29 847.45 201.9 844.48 195.96C856.36 191.12 866.315 187.6 874.345 185.4C882.375 183.2 890.24 182.1 897.94 182.1C905.53 182.1 912.68 184.025 919.39 187.875C926.21 191.725 931.765 197.61 936.055 205.53C940.345 213.34 942.49 223.24 942.49 235.23V357H896.29Z" fill="#010409"/>
<path d="M681.97 361.29C666.9 361.29 653.865 358.65 642.865 353.37C631.865 347.98 622.79 340.83 615.64 331.92C608.6 322.9 603.375 312.945 599.965 302.055C596.555 291.055 594.85 280 594.85 268.89C594.85 250.74 598.7 235.175 606.4 222.195C614.21 209.215 624.66 199.315 637.75 192.495C650.84 185.565 665.36 182.1 681.31 182.1C693.52 182.1 704.575 184.52 714.475 189.36C724.485 194.09 732.625 200.8 738.895 209.49C745.275 218.18 749.125 228.465 750.445 240.345C751.875 252.225 750.17 265.26 745.33 279.45H652.93C655.24 271.86 658.705 265.48 663.325 260.31C667.945 255.03 673.06 252.39 678.67 252.39H708.04C708.92 245.68 708.315 239.41 706.225 233.58C704.135 227.75 700.725 223.075 695.995 219.555C691.375 215.925 685.71 214.11 679 214.11C672.95 214.11 666.955 215.925 661.015 219.555C655.075 223.185 650.125 228.905 646.165 236.715C642.315 244.525 640.39 254.7 640.39 267.24C640.39 279.89 642.315 290.725 646.165 299.745C650.125 308.655 655.57 315.475 662.5 320.205C669.54 324.935 677.68 327.3 686.92 327.3C694.51 327.3 702.045 326.365 709.525 324.495C717.005 322.515 725.53 319.38 735.1 315.09L746.65 345.78C734.77 351.39 723.55 355.35 712.99 357.66C702.54 360.08 692.2 361.29 681.97 361.29Z" fill="#010409"/>
<defs>
<clipPath id="clip0_20_7">
<rect x="87" y="75" width="150" height="193.536" rx="60" transform="rotate(-30 87 75)" fill="white"/>
</clipPath>
<clipPath id="clip1_20_7">
<rect x="217" y="75" width="150" height="193.536" rx="60" transform="rotate(-30 217 75)" fill="white"/>
</clipPath>
<clipPath id="clip2_20_7">
<rect x="306" y="190.303" width="150" height="193.536" rx="60" transform="rotate(-20 306 190.303)" fill="white"/>
</clipPath>
<clipPath id="clip3_20_7">
<rect x="239.309" y="276.257" width="150" height="193.536" rx="60" transform="rotate(140 239.309 276.257)" fill="white"/>
</clipPath>
</defs>
</svg>







