<?xml version="1.0" encoding="UTF-8"?>
<svg version="1.1" xmlns="http://www.w3.org/2000/svg" width="2084" height="2084" viewBox="0 0 2084 2084">
<path d="M0 0 C18.09105495 16.34793684 32.52182101 35.38520322 43.57519531 57.11694336 C43.96545898 57.86911133 44.35572266 58.6212793 44.7578125 59.39624023 C62.95393257 94.7084139 66.73963344 132.02185776 66.70890808 171.1385498 C66.71078001 173.42069457 66.71308222 175.70283902 66.7157734 177.98498297 C66.72185062 184.21059426 66.72176265 190.43619205 66.72057903 196.66180563 C66.72039509 202.70121355 66.72489705 208.74061699 66.72919192 214.78002294 C66.73882801 228.64595275 66.74167476 242.51187884 66.74224897 256.37781161 C66.74270977 267.09226302 66.74477461 277.806713 66.7479496 288.52116394 C66.74884724 291.61323086 66.74973706 294.70529779 66.75062448 297.79736471 C66.75095605 298.95064374 66.75095605 298.95064374 66.75129432 300.12722133 C66.7574426 321.73350844 66.76139549 343.33979505 66.76095104 364.94608307 C66.76093546 365.75954369 66.76091988 366.5730043 66.76090383 367.41111524 C66.76082074 371.53340164 66.7607217 375.65568803 66.76061913 379.77797443 C66.76058921 381.00586742 66.76058921 381.00586742 66.76055869 382.25856633 C66.76051825 383.91396362 66.76047645 385.56936091 66.76043329 387.2247582 C66.75982086 412.96649484 66.76732363 438.7082183 66.78100586 464.44995117 C66.79639763 493.41945268 66.80497023 522.38894552 66.80404264 551.35845137 C66.80396802 554.45303313 66.8039193 557.54761489 66.80388832 560.64219666 C66.80387084 561.7850097 66.80387084 561.7850097 66.803853 562.95090987 C66.80382235 575.16093843 66.81018217 587.37095544 66.81882059 599.58098058 C66.82733617 611.87239532 66.82825665 624.16379336 66.82171126 636.45520943 C66.81836199 643.10144141 66.81833669 649.74764087 66.82706451 656.39387131 C66.83499489 662.49599999 66.83343226 668.59805488 66.82478038 674.7001819 C66.82325965 676.8898635 66.8250066 679.07955078 66.83064046 681.26922566 C66.85849215 692.87709999 66.54123607 704.39265738 65.66911793 715.97084808 C65.58950799 717.03131833 65.50989804 718.09178857 65.42787568 719.18439427 C61.09796277 771.84932194 33.9638955 821.12807396 -5.63427734 855.60375977 C-15.28880437 863.76284873 -25.58830299 870.8774338 -36.59228516 877.08325195 C-37.79861343 877.7637201 -39.00091608 878.45138292 -40.19873047 879.14672852 C-85.36409705 905.32936825 -142.305654 910.74357473 -192.38183594 897.55053711 C-227.87463249 887.67886758 -257.92473728 869.435251 -284.42480469 844.11694336 C-285.15183594 843.44276367 -285.87886719 842.76858398 -286.62792969 842.07397461 C-292.41506074 836.55738017 -297.23992947 830.28966187 -302.05322266 823.9284668 C-302.92944106 822.7711972 -303.81078925 821.61778203 -304.69873047 820.46948242 C-335.62444348 780.37286523 -344.59652219 732.49516674 -344.55851746 683.13220215 C-344.56038825 680.81751007 -344.56269002 678.50281831 -344.56538278 676.18812704 C-344.57147406 669.85873332 -344.57137034 663.52935287 -344.5701884 657.19995689 C-344.56951695 651.06466927 -344.57450294 644.92938477 -344.57880129 638.79409904 C-344.58844779 624.7037432 -344.59128453 610.61339101 -344.59185835 596.52303225 C-344.59231879 585.63638183 -344.59438181 574.74973284 -344.59755898 563.86308289 C-344.59845659 560.72355954 -344.59934641 557.58403619 -344.60023385 554.44451284 C-344.6004549 553.66390124 -344.60067595 552.88328964 -344.6009037 552.07902314 C-344.60705382 530.13586551 -344.61100468 508.19270839 -344.61056042 486.24954987 C-344.61054484 485.42305266 -344.61052926 484.59655546 -344.61051321 483.74501289 C-344.61043011 479.55647773 -344.61033107 475.36794258 -344.6102285 471.17940742 C-344.61019858 469.93173823 -344.61019858 469.93173823 -344.61016806 468.65886361 C-344.61012762 466.9768038 -344.61008583 465.29474399 -344.61004267 463.61268418 C-344.60943021 437.45524418 -344.61693272 411.29781715 -344.63061523 385.14038086 C-344.64600045 355.71606733 -344.65457998 326.29176232 -344.65365201 296.86744452 C-344.65357739 293.72540633 -344.65352868 290.58336814 -344.6534977 287.44132996 C-344.65348604 286.66774762 -344.65347439 285.89416529 -344.65346238 285.09714106 C-344.6534317 272.68830078 -344.65979726 260.27947183 -344.66842996 247.87063491 C-344.67693743 235.3828697 -344.6778723 222.89512093 -344.67132064 210.40735441 C-344.66796695 203.65214642 -344.66796147 196.89698157 -344.67667389 190.14177704 C-344.68458545 183.94346401 -344.68306033 177.74522373 -344.67438976 171.54691237 C-344.67286495 169.31883673 -344.67463187 167.09075553 -344.68024983 164.86268646 C-344.72408848 146.2241521 -344.32799496 127.25467796 -340.23730469 108.99194336 C-340.02299805 108.00806641 -339.80869141 107.02418945 -339.58789062 106.01049805 C-328.83747288 58.64479612 -301.34299399 16.13867002 -262.42480469 -12.88305664 C-261.86567383 -13.30828613 -261.30654297 -13.73351563 -260.73046875 -14.17163086 C-192.57562725 -65.91440457 -91.75463886 -67.50992093 0 0 Z " fill="#35B07C" transform="translate(1453.4248046875,69.883056640625)"/>
<path d="M0 0 C0.9810177 -0.00235223 1.9620354 -0.00470446 2.97278091 -0.00712797 C6.25000574 -0.0137687 9.52719046 -0.01336124 12.80442142 -0.01294994 C15.18206929 -0.01625165 17.5597166 -0.01997787 19.93736321 -0.02409142 C25.78042403 -0.03303797 31.62347773 -0.03733353 37.46654394 -0.03961039 C44.46934712 -0.04258176 51.47214035 -0.05128474 58.47493829 -0.06002467 C75.40093549 -0.08083456 92.3269344 -0.09133439 109.25294141 -0.10015428 C117.26880372 -0.10436672 125.28466529 -0.10958797 133.30052697 -0.11483881 C160.76753149 -0.1327282 188.23453624 -0.14772087 215.70154572 -0.155159 C217.42488261 -0.15563375 219.14821951 -0.15610963 220.8715564 -0.15658666 C221.72613443 -0.15682303 222.58071245 -0.15705941 223.46118678 -0.15730295 C227.79052855 -0.15850408 232.11987031 -0.15971955 236.44921207 -0.16094494 C237.30836664 -0.16118509 238.1675212 -0.16142524 239.05271075 -0.16167267 C266.87972432 -0.1695575 294.70669516 -0.19297289 322.53369009 -0.22550088 C351.98870043 -0.2598687 381.4436858 -0.27951666 410.89871651 -0.28280324 C414.1380781 -0.28322074 417.37743968 -0.28370029 420.61680126 -0.28422642 C421.41435997 -0.28434961 422.21191867 -0.2844728 423.03364582 -0.28459973 C435.82043068 -0.28692334 448.60716558 -0.30253637 461.39393269 -0.32306826 C474.27109973 -0.34341565 487.14820733 -0.34876175 500.02538746 -0.33929763 C506.98969976 -0.33456924 513.95386552 -0.33600434 520.91815472 -0.35605907 C527.31247084 -0.3738222 533.70651037 -0.37258743 540.10082997 -0.35716178 C542.39575067 -0.3548055 544.6906912 -0.35900431 546.98558181 -0.37099043 C600.12836667 -0.63102353 648.97507271 16.91170152 688.80248356 52.13422108 C689.33679996 52.60537342 689.87111637 53.07652576 690.42162418 53.56195545 C696.6363816 59.07031964 702.57281237 64.66152311 707.80248356 71.13422108 C708.62103825 72.1267992 709.43959293 73.11937733 710.28295231 74.14203358 C745.88880857 117.91846998 761.80864528 173.36107284 756.03319645 229.51508045 C749.52284188 283.1707686 722.28516265 333.55708644 679.61498356 367.13422108 C677.3714649 368.84049623 675.09542395 370.49517862 672.80248356 372.13422108 C672.24625309 372.54011463 671.69002262 372.94600819 671.11693668 373.36420155 C632.33956434 401.44781399 587.94364924 411.29545959 540.88825321 411.27466297 C538.54457716 411.27724932 536.20090156 411.28026323 533.85722655 411.28366637 C528.1060202 411.29086637 522.35482495 411.29343746 516.60361442 411.29399543 C509.70923801 411.29491292 502.81487009 411.30159188 495.92049736 411.30834225 C479.26017113 411.32436606 462.59984585 411.33030167 445.9395133 411.335091 C438.04940966 411.33743085 430.15930673 411.34103395 422.26920365 411.34478638 C395.23143567 411.35761946 368.19366809 411.36833823 341.15589714 411.37178898 C339.46011137 411.37201061 337.76432561 411.37223239 336.06853984 411.37245433 C334.36878563 411.37267497 332.66903142 411.37289545 330.9692772 411.37311578 C327.55959403 411.37355832 324.14991087 411.37400544 320.7402277 411.37445545 C319.47213261 411.37461954 319.47213261 411.37461954 318.17841945 411.37478694 C290.78731694 411.37841483 263.39624093 411.39432601 236.00514857 411.41764582 C207.00857637 411.44228708 178.01201932 411.45596383 149.01543635 411.4571569 C145.82725632 411.45732833 142.63907629 411.45754376 139.45089626 411.45779133 C138.27346797 411.45787498 138.27346797 411.45787498 137.07225325 411.45796032 C124.48417798 411.4591071 111.89613009 411.47009727 99.30806404 411.48467838 C86.63505929 411.49910309 73.96208934 411.50224687 61.28907863 411.49423841 C54.43438546 411.49019701 47.57978901 411.49118544 40.72510624 411.50529575 C34.43340265 411.51812796 28.14185826 411.51675621 21.8501546 411.50470504 C19.59032417 411.50276405 17.3304821 411.50575121 15.07066796 411.5145494 C-44.85317099 411.73282756 -98.43640069 391.61642534 -141.32251644 349.32172108 C-179.07605268 311.30413789 -199.0185439 258.64139598 -199.51001644 205.44672108 C-199.30937854 152.09614664 -179.01694128 101.60013996 -142.19751644 63.13422108 C-141.67705746 62.58121326 -141.15659847 62.02820545 -140.620368 61.45843983 C-105.02158392 23.75309291 -52.04644624 -0.0862833 0 0 Z " fill="#42C0EB" transform="translate(217.19751644134521,562.8657789230347)"/>
<path d="M0 0 C2.29748019 -0.00187083 4.59496005 -0.00417262 6.89243942 -0.00686532 C13.17429626 -0.01295614 19.45613973 -0.01285294 25.73799884 -0.01167095 C31.82741695 -0.0114873 37.91683013 -0.01598562 44.00624642 -0.02028384 C57.99143739 -0.02993015 71.97662467 -0.03276707 85.96181857 -0.03334089 C96.76789211 -0.03380137 107.57396423 -0.03586453 118.38003731 -0.03904152 C121.49651545 -0.03993914 124.6129936 -0.04082895 127.72947174 -0.0417164 C128.89180315 -0.04204797 128.89180315 -0.04204797 130.077616 -0.04238624 C151.86001686 -0.04853639 173.64241723 -0.05248722 195.42481899 -0.05204296 C196.24525953 -0.05202738 197.06570008 -0.0520118 197.91100245 -0.05199575 C202.06882345 -0.05191265 206.22664445 -0.05181361 210.38446545 -0.05171105 C211.21014195 -0.0516911 212.03581845 -0.05167115 212.88651545 -0.05165061 C214.55623397 -0.05161017 216.22595248 -0.05156837 217.895671 -0.05152521 C243.85843654 -0.05091282 269.82118901 -0.05841406 295.78395081 -0.07209778 C324.99109715 -0.08748532 354.1982349 -0.09606238 383.40538555 -0.09513456 C386.52469289 -0.09505993 389.64400023 -0.09501122 392.76330757 -0.09498024 C393.91528104 -0.09496276 393.91528104 -0.09496276 395.09052669 -0.09494492 C407.40618621 -0.09491425 419.7218343 -0.10127812 432.03749043 -0.1099125 C444.43341596 -0.1184229 456.82932493 -0.11935258 469.22525179 -0.11280318 C475.92995228 -0.109451 482.63460672 -0.10943873 489.33930588 -0.11815643 C495.49264445 -0.1260745 501.64590978 -0.12453639 507.79924668 -0.1158723 C510.00984359 -0.1143489 512.22044612 -0.11610896 514.43103641 -0.12173238 C533.30017638 -0.16650333 552.68571426 0.10295541 571.17384338 4.25871277 C572.14619934 4.47116638 573.1185553 4.68362 574.12037659 4.9025116 C622.21596478 15.90825218 666.1602664 43.98963632 695.17384338 84.13371277 C695.58408752 84.69429382 695.99433167 85.25487488 696.41700745 85.83244324 C727.66737645 128.99655149 740.22803845 184.29463613 732.65211487 236.88786316 C723.97060795 290.53144447 695.73877249 338.44817764 652.17384338 371.13371277 C651.61181213 371.56184265 651.04978088 371.98997253 650.47071838 372.43107605 C619.37466975 396.03464801 578.35125273 411.33187848 539.12592506 411.26793385 C538.13678521 411.27028608 537.14764536 411.27263831 536.12853158 411.27506182 C532.81164401 411.28172258 529.49479589 411.28129447 526.17790222 411.28088379 C523.77651897 411.28418426 521.37513628 411.28791021 518.97375429 411.29202527 C513.06425482 411.30098375 507.15476239 411.30526968 501.24525758 411.30754423 C494.16459468 411.31051209 487.08394165 411.31921311 480.00328395 411.32795851 C462.88678762 411.34878374 445.77028959 411.35927104 428.65378356 411.36808812 C420.54903013 411.37229876 412.44427745 411.37752029 404.33952465 411.38277265 C376.57312589 411.40066424 348.80672692 411.41565693 321.04032326 411.42309284 C319.29766568 411.42356759 317.55500811 411.42404348 315.81235053 411.4245205 C314.9481807 411.42475688 314.08401086 411.42499326 313.19365405 411.4252368 C308.81563122 411.42643794 304.4376084 411.42765341 300.05958557 411.42887878 C299.19076542 411.42911893 298.32194527 411.42935908 297.42679724 411.42960651 C269.28841715 411.43749087 241.15007934 411.46090415 213.01171769 411.49343473 C183.23416372 411.5277972 153.45663446 411.54745007 123.67906034 411.55073708 C120.40457939 411.55115459 117.13009846 411.55163414 113.85561752 411.55216026 C113.04939949 411.55228345 112.24318146 411.55240665 111.41253258 411.55253357 C98.48224627 411.55485799 85.55200933 411.57047573 72.62174056 411.59100211 C59.60096035 411.61134267 46.58023891 411.61669881 33.55944575 411.60723148 C25.84187209 411.60204781 18.12449528 411.60774388 10.40695027 411.62976615 C4.61610257 411.64502888 -1.17457645 411.63892298 -6.96542056 411.62509563 C-9.28730093 411.62273704 -11.60920084 411.62695055 -13.93105154 411.63892428 C-71.77704613 411.91842313 -123.88912502 389.6225798 -164.82615662 349.13371277 C-167.31119771 346.57146652 -169.58242478 343.90821988 -171.82615662 341.13371277 C-172.71241986 340.0825473 -173.5991874 339.03180692 -174.48631287 337.98136902 C-209.46775331 296.03126195 -225.51534345 241.91823339 -221.13865662 187.69621277 C-216.37584531 136.50381744 -192.74588474 85.86251545 -153.35350037 52.00871277 C-150.54081187 49.6776213 -147.68902074 47.40282568 -144.82615662 45.13371277 C-143.8606488 44.33965027 -142.89514099 43.54558777 -141.90037537 42.72746277 C-100.96909121 9.85761323 -51.19100848 -0.03971559 0 0 Z " fill="#ECB22C" transform="translate(1330.826156616211,1108.8662872314453)"/>
<path d="M0 0 C0.70382812 0.22913086 1.40765625 0.45826172 2.1328125 0.69433594 C53.44565615 17.75734234 94.86805388 57.16630218 119.08642578 104.87329102 C126.46911584 120.01353009 131.91302608 136.6044027 135.4375 153.0625 C135.57704102 153.71331543 135.71658203 154.36413086 135.86035156 155.03466797 C138.98285691 171.22821787 139.290623 187.43896413 139.26069641 203.87026978 C139.26372236 206.24458637 139.26761406 208.618902 139.27228898 210.99321592 C139.28145228 216.79689942 139.2814372 222.60053051 139.27737736 228.40421862 C139.27302517 235.3661787 139.28033289 242.32811499 139.28786864 249.29007062 C139.30306094 263.72083413 139.3048186 278.15158001 139.30234561 292.58234985 C139.30050859 303.73160264 139.30228113 314.8808497 139.30657005 326.03010178 C139.30717247 327.63539461 139.30777367 329.24068744 139.30837366 330.84598028 C139.30928097 333.26540945 139.31018964 335.68483861 139.31110601 338.10426778 C139.31952851 360.58221061 139.32387614 383.06015129 139.31969929 405.53809547 C139.31954291 406.38442945 139.31938654 407.23076343 139.31922542 408.1027439 C139.31841971 412.39169031 139.31757394 416.68063671 139.31671212 420.96958311 C139.31645549 422.2471367 139.31645549 422.2471367 139.31619367 423.55049946 C139.31584701 425.27284659 139.31549848 426.99519371 139.31514808 428.71754084 C139.30979304 455.50653114 139.31771802 482.2954885 139.33618164 509.08447266 C139.35693234 539.22663938 139.36761845 569.36878572 139.36360615 599.51095998 C139.36321085 602.7296412 139.3628493 605.94832241 139.36250877 609.16700363 C139.36241804 609.95944315 139.36232731 610.75188267 139.36223383 611.5683355 C139.36107149 623.49216622 139.36768843 635.41597624 139.37832069 647.33980179 C139.3904123 660.91355082 139.39188633 674.48725448 139.37953053 688.06100424 C139.37351435 694.97839172 139.37209332 701.89569858 139.38453293 708.81307983 C139.3954535 715.16062451 139.39221551 721.50800742 139.37827124 727.85554473 C139.3756412 730.1367106 139.37793675 732.4178894 139.38600711 734.69904251 C139.56449476 788.97047835 123.14976652 839.51029756 86.04296875 879.76953125 C84.15961002 881.82574126 82.35917369 883.93078226 80.5625 886.0625 C68.48482216 899.81078634 52.73352219 911.07762347 36.81640625 919.98242188 C35.02350884 920.98682999 33.24656029 922.01606038 31.46875 923.046875 C9.78250703 935.36563487 -15.31624603 942.89564522 -40 946 C-41.08800903 946.1403064 -41.08800903 946.1403064 -42.19799805 946.28344727 C-81.22506633 950.77521903 -120.64951847 943.93094403 -156 927 C-156.75216797 926.64180176 -157.50433594 926.28360352 -158.27929688 925.91455078 C-205.29786769 903.1653087 -242.50520161 860.18990921 -259.92993164 811.16821289 C-262.64994592 803.13758705 -264.87862481 795.00356775 -266.8125 786.75 C-267.00755127 785.92443604 -267.20260254 785.09887207 -267.40356445 784.24829102 C-271.0032079 767.89825636 -271.29065078 751.66517783 -271.26069641 735.00874329 C-271.26372171 732.60911557 -271.26761308 730.20948882 -271.27228898 727.80986375 C-271.28039822 722.61893122 -271.28238335 717.42803473 -271.27878571 712.23709869 C-271.27344973 704.51736937 -271.27960294 696.79767786 -271.28786864 689.07795264 C-271.30306649 674.48409659 -271.30481804 659.89025795 -271.30234561 645.29639564 C-271.30050914 634.02219709 -271.30227997 622.74800422 -271.30657005 611.47380638 C-271.30717247 609.85097304 -271.30777367 608.2281397 -271.30837366 606.60530635 C-271.30928096 604.1594975 -271.31018963 601.71368865 -271.31110601 599.2678798 C-271.31952928 576.54308727 -271.32387558 553.81829687 -271.31969929 531.093503 C-271.31954291 530.2377554 -271.31938654 529.38200781 -271.31922542 528.50032847 C-271.3184197 524.16359601 -271.31757393 519.82686356 -271.31671212 515.49013112 C-271.31654103 514.62892635 -271.31636994 513.76772158 -271.31619367 512.8804197 C-271.31584701 511.1388565 -271.31549848 509.3972933 -271.31514808 507.6557301 C-271.30979244 480.56482607 -271.31771941 453.4739546 -271.33618164 426.38305664 C-271.35692659 395.90727722 -271.36761958 365.43151797 -271.36360615 334.95573109 C-271.36321084 331.70224488 -271.36284929 328.44875867 -271.36250877 325.19527245 C-271.36241804 324.39425268 -271.36232731 323.59323291 -271.36223383 322.76793982 C-271.36107091 310.70877766 -271.36769283 298.64963595 -271.37832069 286.5904789 C-271.39040506 272.8651337 -271.39189454 259.13983337 -271.37953053 245.41448746 C-271.37293161 237.7471641 -271.37446388 230.07994824 -271.38811904 222.41263363 C-271.39740824 216.66666901 -271.39077434 210.92080605 -271.37827124 205.17485156 C-271.3756367 202.86610072 -271.37795128 200.55733714 -271.38600711 198.24859885 C-271.50194094 162.51330153 -264.19900946 128.53434149 -247 97 C-246.68063477 96.4028418 -246.36126953 95.80568359 -246.03222656 95.19042969 C-228.13583799 61.85045707 -200.53725527 34.97381322 -168 16 C-167.41105957 15.65130859 -166.82211914 15.30261719 -166.21533203 14.94335938 C-147.92677136 4.22336248 -127.64289666 -2.52942141 -107 -7 C-105.80963135 -7.26683594 -105.80963135 -7.26683594 -104.59521484 -7.5390625 C-70.50273996 -14.82754918 -32.78544917 -10.76803972 0 0 Z " fill="#E0185B" transform="translate(835,1120)"/>
<path d="M0 0 C27.81747981 -0.04684445 55.63495366 -0.08204961 83.45246506 -0.10362434 C96.37034173 -0.11391078 109.28819381 -0.12792045 122.20605469 -0.15087891 C133.4730739 -0.17089373 144.74007529 -0.18373554 156.00711179 -0.18817699 C161.96579017 -0.19077073 167.92441758 -0.19681154 173.88307953 -0.21146011 C179.5071166 -0.22517226 185.13108238 -0.22919548 190.75513458 -0.22621536 C192.80436085 -0.22675949 194.85358985 -0.23065486 196.90280151 -0.23841095 C213.33839529 -0.29749541 229.86961873 0.30880313 246 3.75 C246.81428467 3.92063965 247.62856934 4.0912793 248.4675293 4.26708984 C294.75259288 14.33157061 336.58275824 39.76802566 366 77 C367.18916016 78.44632813 367.18916016 78.44632813 368.40234375 79.921875 C389.21526012 105.8311611 401.88864285 137.54853229 408 170 C408.32097656 171.65708984 408.32097656 171.65708984 408.6484375 173.34765625 C417.50166829 226.14627174 403.78797642 281.65462491 373.125 325.1875 C360.229894 342.98527473 344.8254668 359.11688999 327 372 C326.43941895 372.41024414 325.87883789 372.82048828 325.30126953 373.24316406 C290.66228018 398.32143494 248.81224186 411.21435627 206.25 411.25 C205.1581842 411.25101212 205.1581842 411.25101212 204.04431152 411.25204468 C191.4933905 411.23365719 179.34179683 410.42445197 167 408 C166.14083984 407.83371094 165.28167969 407.66742187 164.39648438 407.49609375 C144.58047357 403.52406486 125.73359296 396.67200261 108 387 C107.4028418 386.68063477 106.80568359 386.36126953 106.19042969 386.03222656 C79.91229313 371.92652383 56.37817973 351.22014619 39 327 C38.59265625 326.44231934 38.1853125 325.88463867 37.765625 325.31005859 C17.53269968 297.36973332 4.43586539 263.35865389 1 229 C0.91754815 228.19290746 0.8350963 227.38581491 0.75014591 226.55426502 C-0.20625873 215.93745513 -0.13341872 205.34720746 -0.11352539 194.69604492 C-0.11324287 192.56607566 -0.11340252 190.43610629 -0.1139679 188.30613708 C-0.11425333 182.55914767 -0.10839777 176.81217938 -0.10139394 171.06519485 C-0.095118 165.04609393 -0.09455326 159.02699247 -0.09336853 153.00788879 C-0.09026768 141.6256252 -0.08207115 130.24337128 -0.07201904 118.86111194 C-0.06081912 105.89612494 -0.0553377 92.93113746 -0.05032361 79.96614683 C-0.03988744 53.3107592 -0.02231223 26.65538014 0 0 Z " fill="#ECB22C" transform="translate(1109,1656)"/>
<path d="M0 0 C40.5865075 35.643213 67.37362327 85.67453692 71 140 C71.80001254 158.45362257 71.57105077 176.82138329 68 195 C67.83371094 195.85916016 67.66742187 196.71832031 67.49609375 197.60351562 C63.52406486 217.41952643 56.67200261 236.26640704 47 254 C46.68063477 254.5971582 46.36126953 255.19431641 46.03222656 255.80957031 C21.04401137 302.36121993 -23.14693502 338.08613215 -73.61328125 353.50390625 C-79.40121816 355.16447636 -85.23884333 356.54770601 -91.125 357.8125 C-92.02919678 358.00763184 -92.93339355 358.20276367 -93.86499023 358.40380859 C-110.50265956 361.72928788 -127.16423765 362.29063789 -144.0769043 362.22705078 C-146.21761062 362.22648506 -148.35831733 362.22680636 -150.49902344 362.22793579 C-156.24774991 362.22850403 -161.99639104 362.2168364 -167.74509788 362.20278788 C-173.77617176 362.19019133 -179.80724812 362.18910304 -185.83833313 362.18673706 C-197.2310357 362.18054831 -208.62369937 362.16417313 -220.0163849 362.14403808 C-232.99843522 362.12159751 -245.98048751 362.11066523 -258.96255243 362.10064721 C-285.64172309 362.07980429 -312.32085935 362.04467954 -339 362 C-339.09381696 333.39075337 -339.16416114 304.78153011 -339.20724869 276.17216015 C-339.22779479 262.88562892 -339.25576166 249.59921809 -339.30175781 236.31274414 C-339.34187078 224.72007483 -339.36749045 213.12747516 -339.37635398 201.53473836 C-339.38152766 195.40753852 -339.39351803 189.28053778 -339.42292023 183.15340233 C-339.61391332 141.6928212 -337.22968265 104.06214577 -319 66 C-318.64180176 65.24783203 -318.28360352 64.49566406 -317.91455078 63.72070312 C-300.73535681 28.2144148 -271.30112427 -2.64312056 -237 -22 C-236.31631348 -22.38897461 -235.63262695 -22.77794922 -234.92822266 -23.17871094 C-160.08786807 -65.32885129 -65.24818315 -55.63675298 0 0 Z " fill="#35B07C" transform="translate(1994,612)"/>
<path d="M0 0 C5.69869779 0.01267684 11.39739872 0.01369099 17.09610844 0.01605082 C27.84040039 0.02221657 38.58465065 0.0385595 49.32892442 0.05874979 C61.58084625 0.08126339 73.8327703 0.09214072 86.08470774 0.10214067 C111.24435366 0.12293128 136.40396282 0.15800965 161.5635767 0.20278788 C161.65518234 28.69566855 161.72579742 57.18853042 161.76783802 85.68153 C161.77283977 89.05914029 161.77801716 92.43675029 161.78330326 95.81436014 C161.7843525 96.48667193 161.78540174 97.15898373 161.78648278 97.8516686 C161.80380287 108.68242343 161.8352932 119.51309176 161.87218788 130.34379559 C161.90983291 141.48921961 161.93156317 152.63460881 161.93993068 163.78009468 C161.94510968 170.02683643 161.95713525 176.2733832 161.98649693 182.52006197 C162.01400307 188.4207687 162.02195192 194.32120342 162.01600742 200.22196817 C162.01709215 202.36747141 162.02483333 204.51298544 162.0403986 206.65843248 C162.43707723 264.24557125 138.7499762 314.63717291 98.8135767 355.20278788 C92.13261307 361.88840777 85.29453817 367.76041428 77.5635767 373.20278788 C77.00944096 373.60126932 76.45530521 373.99975077 75.88437748 374.41030741 C52.50165182 391.15390269 25.71396527 402.47990668 -2.4364233 408.20278788 C-3.18697994 408.36504862 -3.93753658 408.52730936 -4.71083736 408.69448709 C-29.36479363 413.84534601 -58.86655167 413.69842034 -83.4364233 408.20278788 C-84.79380611 407.90477274 -84.79380611 407.90477274 -86.1786108 407.60073709 C-115.79695757 400.90349913 -143.33032541 388.78345812 -167.4364233 370.20278788 C-168.4367358 369.43321756 -169.4370483 368.66364725 -170.4676733 367.87075663 C-190.19903082 352.13669999 -206.32100494 333.7255257 -219.4364233 312.20278788 C-219.80090572 311.6175535 -220.16538815 311.03231913 -220.54091549 310.42935038 C-235.72634948 285.87532118 -243.88436964 257.68997521 -247.4364233 229.20278788 C-247.56790768 228.18958475 -247.69939205 227.17638163 -247.8348608 226.13247538 C-252.16673356 185.03822301 -242.91997456 143.39067608 -223.4364233 107.20278788 C-222.82282955 106.03618631 -222.2092358 104.86958475 -221.5770483 103.66763163 C-209.29975029 81.16770738 -191.47171019 61.03280733 -171.4364233 45.20278788 C-170.47220455 44.41001444 -169.5079858 43.617241 -168.5145483 42.80044413 C-119.17769787 3.16817722 -60.49084865 -0.15774224 0 0 Z " fill="#E0185B" transform="translate(266.4364233016968,1108.7972121238708)"/>
<path d="M0 0 C1.99513112 1.85856354 3.9682447 3.73908916 5.9375 5.625 C6.43636719 6.09663574 6.93523437 6.56827148 7.44921875 7.05419922 C15.44328812 14.63983124 22.43943818 22.72627208 28.9375 31.625 C29.35209473 32.18993164 29.76668945 32.75486328 30.19384766 33.33691406 C45.21394161 54.09000464 55.81998673 77.76809164 62.25 102.5 C62.48058105 103.37068115 62.71116211 104.2413623 62.94873047 105.13842773 C67.38381629 123.34965264 68.38211118 141.8624877 68.27807617 160.52319336 C68.27722698 162.70389799 68.27771072 164.88460348 68.27940369 167.06530762 C68.28025368 172.90474639 68.26279204 178.7439949 68.24168181 184.58339 C68.22274619 190.71586655 68.22115142 196.84834894 68.21760559 202.98085022 C68.2083342 214.55760538 68.18378782 226.1342741 68.15355712 237.71099144 C68.1198591 250.90594112 68.10348863 264.10089524 68.08847082 277.29587734 C68.05723312 304.40563255 68.00456954 331.5153114 67.9375 358.625 C39.51992361 358.69530526 11.10236039 358.7480931 -17.31528568 358.78043652 C-30.51222211 358.79585808 -43.70910428 358.81685682 -56.90600586 358.85131836 C-68.41806482 358.8813657 -79.93008444 358.90060916 -91.44218153 358.90726548 C-97.52897385 358.91115193 -103.61565372 358.9201857 -109.70240974 358.94219017 C-115.4504158 358.96279847 -121.19826482 358.96878548 -126.94630432 358.96432304 C-129.03781429 358.9651375 -131.12933041 358.97095626 -133.22080803 358.98261642 C-151.61334194 359.07998575 -170.07264575 357.71601589 -187.9375 353.0625 C-189.39675903 352.68786621 -189.39675903 352.68786621 -190.88549805 352.30566406 C-241.22093532 338.71344724 -286.45576326 305.0953099 -313.07421875 260.125 C-313.73894514 258.95945236 -314.40157506 257.79270746 -315.0625 256.625 C-315.63798584 255.62339844 -315.63798584 255.62339844 -316.22509766 254.6015625 C-333.85107887 223.63907787 -342.53611828 189.28943722 -342.4375 153.75 C-342.43695618 153.00030945 -342.43641235 152.2506189 -342.43585205 151.47821045 C-342.36340822 129.5184564 -339.0434988 108.46663089 -332.0625 87.625 C-331.82273437 86.90812012 -331.58296875 86.19124023 -331.3359375 85.45263672 C-322.26284175 58.88765927 -308.11184914 35.48162047 -289.11328125 14.86328125 C-287.18805454 12.76203381 -285.34171697 10.61180694 -283.5 8.4375 C-279.9849469 4.4282671 -276.17115718 1.01513208 -272.0625 -2.375 C-271.56282715 -2.79765137 -271.0631543 -3.22030273 -270.54833984 -3.65576172 C-255.81406189 -16.09525057 -239.67769814 -26.49258602 -222.0625 -34.375 C-221.31452148 -34.70983398 -220.56654297 -35.04466797 -219.79589844 -35.38964844 C-201.02493891 -43.640194 -181.3594083 -48.65521429 -161.0625 -51.375 C-160.0828125 -51.50648437 -159.103125 -51.63796875 -158.09375 -51.7734375 C-101.08496006 -57.83471689 -42.27284059 -38.58529748 0 0 Z " fill="#42C0EB" transform="translate(906.0625,68.375)"/>
</svg>
